<svg width="1em" height="1em" viewBox="0 0 25 25" fill="none" xmlns="http://www.w3.org/2000/svg">
  <path d="M14.9059 1C15.9031 1 16.8259 1.52809 17.3309 2.38796L18.3491 4.12119H20.9375C23.1811 4.12119 25 5.94003 25 8.18369V20.0587C25 22.3024 23.1811 24.1212 20.9375 24.1212H4.0625C1.81884 24.1212 0 22.3024 0 20.0587V8.18369C0 5.94003 1.81884 4.12119 4.0625 4.12119H6.66302L7.75625 2.34081C8.26781 1.50769 9.17532 1 10.153 1H14.9059ZM12.5 7.87119C9.3934 7.87119 6.875 10.3896 6.875 13.4962C6.875 16.6027 9.3934 19.1212 12.5 19.1212C15.6066 19.1212 18.125 16.6027 18.125 13.4962C18.125 10.3896 15.6066 7.87119 12.5 7.87119ZM12.5 9.74619C14.5711 9.74619 16.25 11.4251 16.25 13.4962C16.25 15.5672 14.5711 17.2462 12.5 17.2462C10.4289 17.2462 8.75 15.5672 8.75 13.4962C8.75 11.4251 10.4289 9.74619 12.5 9.74619Z" fill="currentColor"/>
</svg>