<svg width="1em" height="1em" viewBox="0 0 23 23" fill="none" xmlns="http://www.w3.org/2000/svg">
    <path d="M11.5253 0.593872C17.5615 0.593872 22.4549 5.48722 22.4549 11.5235C22.4549 17.5597 17.5615 22.4531 11.5253 22.4531C5.48905 22.4531 0.595703 17.5597 0.595703 11.5235C0.595703 5.48722 5.48905 0.593872 11.5253 0.593872ZM15.0443 8.21144L10.1591 13.0966L8.00633 10.9439C7.68622 10.6237 7.16719 10.6237 6.84707 10.9439C6.52696 11.264 6.52696 11.7829 6.84707 12.1031L9.57951 14.8355C9.89964 15.1556 10.4186 15.1556 10.7387 14.8355L16.2035 9.37067C16.5236 9.05059 16.5236 8.53156 16.2035 8.21144C15.8834 7.89133 15.3644 7.89133 15.0443 8.21144Z" fill="currentColor"/>
</svg>