<svg width="1em" height="1em" viewBox="0 0 23 15" fill="none" xmlns="http://www.w3.org/2000/svg">
    <path d="M22.6577 7.04112C22.4541 6.76091 17.6041 0.179138 11.4999 0.179138C5.39574 0.179138 0.545743 6.76039 0.342618 7.0406C0.245913 7.17415 0.193848 7.33482 0.193848 7.49971C0.193848 7.6646 0.245913 7.82527 0.342618 7.95883C0.545743 8.23903 5.39574 14.8208 11.4999 14.8208C17.6041 14.8208 22.4541 8.23903 22.6577 7.95935C22.7547 7.82589 22.8069 7.66518 22.8069 7.50023C22.8069 7.33529 22.7547 7.17457 22.6577 7.04112ZM11.4999 13.2583C7.0572 13.2583 3.14679 8.93851 1.96814 7.49997C3.14679 6.06143 7.0572 1.74164 11.4999 1.74164C15.9426 1.74164 19.853 6.06143 21.0322 7.49997C19.853 8.93851 15.9426 13.2583 11.4999 13.2583ZM13.6983 4.83435C13.5262 4.94962 13.4068 5.12853 13.3665 5.33176C13.3262 5.53499 13.3682 5.74591 13.4832 5.9182C13.7447 6.30935 13.8832 6.76664 13.8832 7.24008C13.8832 8.55362 12.814 9.62289 11.5004 9.62289C10.1869 9.62289 9.11762 8.55362 9.11762 7.24008C9.11762 5.92653 10.1864 4.85726 11.5004 4.85726C11.7076 4.85726 11.9063 4.77495 12.0529 4.62844C12.1994 4.48193 12.2817 4.28321 12.2817 4.07601C12.2817 3.86881 12.1994 3.6701 12.0529 3.52359C11.9063 3.37707 11.7076 3.29476 11.5004 3.29476C9.32491 3.29476 7.55512 5.06455 7.55512 7.24008C7.55512 9.4156 9.32491 11.1854 11.5004 11.1854C13.676 11.1854 15.4457 9.4156 15.4457 7.24008C15.4457 6.45674 15.2166 5.69945 14.7827 5.04997C14.7257 4.96456 14.6525 4.89122 14.5671 4.83414C14.4817 4.77707 14.3859 4.73739 14.2852 4.71736C14.1845 4.69733 14.0809 4.69736 13.9801 4.71743C13.8794 4.73751 13.7837 4.77723 13.6983 4.83435Z" fill="currentColor"/>
</svg>