<svg width="1em" height="1em" viewBox="0 0 20 19" fill="none" xmlns="http://www.w3.org/2000/svg">
    <path d="M4.26604 0.836751C4.18107 0.731757 4.07793 0.646293 3.9626 0.585313C3.84728 0.524334 3.72206 0.489052 3.5942 0.481512C3.46634 0.473972 3.33839 0.494324 3.21777 0.541389C3.09714 0.588454 2.98623 0.661295 2.89147 0.755691C2.79672 0.850087 2.71999 0.96416 2.66575 1.0913C2.61151 1.21844 2.58082 1.35611 2.57548 1.49635C2.57013 1.63658 2.59023 1.77658 2.63461 1.90824C2.67899 2.03989 2.74677 2.16058 2.83401 2.26331L4.12413 3.82334C1.34635 5.85093 0.140894 8.76062 0.0828386 8.89762C0.0282128 9.03338 0 9.18013 0 9.32851C0 9.47688 0.0282128 9.62363 0.0828386 9.75939C0.112673 9.83187 0.819011 11.5501 2.38005 13.2604C4.46681 15.5452 7.09784 16.7526 10.0006 16.7526C11.4114 16.7611 12.8095 16.4606 14.1128 15.8687L15.7327 17.822C15.9062 18.0263 16.1462 18.1474 16.4006 18.1591C16.655 18.1707 16.9033 18.072 17.0917 17.8843C17.2801 17.6966 17.3935 17.435 17.4071 17.1563C17.4208 16.8776 17.3337 16.6043 17.1648 16.3955L4.26604 0.836751ZM10.0006 14.6313C7.6147 14.6313 5.52793 13.6829 3.79918 11.8135C3.11917 11.0754 2.53404 10.2393 2.05994 9.32806C2.48487 8.50518 3.57502 6.6853 5.44649 5.41342L12.7107 14.1734C11.8346 14.4801 10.9202 14.6345 10.0006 14.6313ZM19.9184 9.75939C19.8893 9.83099 19.1927 11.5271 17.6607 13.2206C17.5729 13.3274 17.4663 13.4135 17.3473 13.4737C17.2283 13.5339 17.0994 13.567 16.9684 13.5709C16.8374 13.5749 16.707 13.5496 16.5852 13.4967C16.4633 13.4437 16.3526 13.3642 16.2596 13.2629C16.1667 13.1616 16.0935 13.0407 16.0444 12.9074C15.9954 12.7742 15.9716 12.6314 15.9744 12.4878C15.9773 12.3441 16.0067 12.2026 16.0609 12.0718C16.1151 11.941 16.1931 11.8237 16.2899 11.7269C16.9335 11.0096 17.4886 10.2032 17.9413 9.32806C17.4674 8.41666 16.8823 7.58046 16.202 6.84263C14.4725 4.97325 12.3865 4.02486 10.0006 4.02486C9.73048 4.02486 9.46037 4.03724 9.19428 4.06198C9.06605 4.07704 8.93637 4.06385 8.81287 4.02318C8.68936 3.98252 8.57451 3.9152 8.47507 3.82518C8.37564 3.73517 8.29362 3.62427 8.23385 3.49901C8.17407 3.37375 8.13774 3.23666 8.12699 3.09579C8.11624 2.95492 8.13129 2.81311 8.17125 2.67871C8.21121 2.5443 8.27528 2.42001 8.35969 2.31314C8.4441 2.20627 8.54715 2.11897 8.66278 2.05638C8.77841 1.99378 8.90429 1.95716 9.03302 1.94866C9.3499 1.9186 9.67807 1.90358 10.0006 1.90358C12.9034 1.90358 15.5344 3.11183 17.6195 5.39662C19.1798 7.10691 19.8861 8.82603 19.9159 8.89762C19.971 9.0332 19.9996 9.17985 20 9.32823C20.0004 9.47661 19.9726 9.62345 19.9184 9.75939Z" fill="currentColor"/>
</svg>