<svg width="1em" height="1em" viewBox="0 0 13 13" fill="none" xmlns="http://www.w3.org/2000/svg">
    <path d="M4.56528 9.313H8.43493C8.0475 11.3576 7.27162 12.7494 6.50012 12.7494C5.752 12.7494 4.99975 11.4407 4.60156 9.49706L4.56528 9.313ZM0.916239 9.31313L3.60726 9.313C3.83525 10.6144 4.22167 11.7216 4.72738 12.4964C3.12561 12.0233 1.79207 10.9266 1.00771 9.48744L0.916239 9.31313ZM9.39293 9.313L12.084 9.31313C11.3144 10.8379 9.93868 12.0044 8.2735 12.4962C8.74506 11.7726 9.113 10.7601 9.34531 9.57057L9.39293 9.313ZM9.58224 5.2505L12.6261 5.25013C12.7081 5.65406 12.7511 6.07219 12.7511 6.50031C12.7511 7.15363 12.6509 7.78356 12.4649 8.37556H9.52581C9.59162 7.77706 9.62606 7.14825 9.62606 6.50031C9.62606 6.21638 9.61943 5.93606 9.6065 5.66044L9.58224 5.2505ZM0.374183 5.25013L3.41795 5.2505C3.38905 5.65675 3.37415 6.07438 3.37415 6.50031C3.37415 7.01869 3.39621 7.52475 3.43873 8.01294L3.47443 8.37556H0.535289C0.349371 7.78356 0.249146 7.15363 0.249146 6.50031C0.249146 6.07219 0.292183 5.65406 0.374183 5.25013ZM4.3598 5.25013H8.64043C8.67181 5.65369 8.68856 6.07169 8.68856 6.50031C8.68856 7.02381 8.66362 7.53156 8.61743 8.01638L8.57887 8.37556H4.42133C4.35068 7.78444 4.31164 7.15475 4.31164 6.50031C4.31164 6.17888 4.32106 5.86338 4.33902 5.55544L4.3598 5.25013ZM8.34031 0.610671L8.27287 0.504277C10.1593 1.06113 11.6743 2.48401 12.3576 4.3126L9.48825 4.31278C9.29106 2.80221 8.89043 1.50491 8.34031 0.610671ZM4.65122 0.527283L4.72733 0.504302C4.17686 1.34775 3.76773 2.585 3.55044 4.03789L3.51196 4.31278L0.642658 4.3126C1.3167 2.50869 2.8002 1.0996 4.65122 0.527283ZM6.50012 0.251221C7.32437 0.251221 8.15362 1.83981 8.50887 4.11588L8.53812 4.31263H4.4621C4.79923 1.93189 5.65231 0.251221 6.50012 0.251221Z" fill="currentColor"/>
</svg>