<svg width="1em" height="1em" viewBox="0 0 126 126" fill="none" xmlns="http://www.w3.org/2000/svg">
    <path d="M120.75 68.193H5.25C2.352 68.193 0 65.8668 0 63.0006C0 60.1345 2.352 57.8083 5.25 57.8083H120.75C123.648 57.8083 126 60.1345 126 63.0006C126 65.8668 123.648 68.193 120.75 68.193ZM120.75 28.3847H5.25C2.352 28.3847 0 26.0585 0 23.1923C0 20.3262 2.352 18 5.25 18H120.75C123.648 18 126 20.3262 126 23.1923C126 26.0585 123.648 28.3847 120.75 28.3847ZM120.75 108H5.25C2.352 108 0 105.674 0 102.808C0 99.9415 2.352 97.6153 5.25 97.6153H120.75C123.648 97.6153 126 99.9415 126 102.808C126 105.674 123.648 108 120.75 108Z" fill="currentColor"/>
</svg>