<svg width="1em" height="1em" viewBox="0 0 91 91" fill="none" xmlns="http://www.w3.org/2000/svg">
    <path d="M36.7238 0.75C56.6337 0.75 72.7735 16.9797 72.7735 37C72.7735 45.6595 69.7538 53.6095 64.7158 59.844L89.0844 84.3485C90.5408 85.813 90.5408 88.187 89.0844 89.6515C87.7608 90.983 85.6888 91.104 84.2289 90.0145L83.8107 89.6515L59.4416 65.1475C53.2415 70.2135 45.3355 73.25 36.7238 73.25C16.8141 73.25 0.674072 57.0205 0.674072 37C0.674072 16.9797 16.8141 0.75 36.7238 0.75ZM36.7238 8.25C20.9333 8.25 8.13264 21.1218 8.13264 37C8.13264 52.878 20.9333 65.75 36.7238 65.75C52.5141 65.75 65.315 52.878 65.315 37C65.315 21.1218 52.5141 8.25 36.7238 8.25Z" fill="currentColor"/>
</svg>