<svg width="1em" height="1em" viewBox="0 0 40 40" fill="none" xmlns="http://www.w3.org/2000/svg">
    <path d="M35.4161 6.66656C35.4161 9.6582 32.9912 12.0834 29.9996 12.0834C27.0079 12.0834 24.583 9.6582 24.583 6.66656C24.583 3.67523 27.0079 1.25 29.9996 1.25C32.9912 1.25 35.4161 3.67523 35.4161 6.66656Z" fill="currentColor"/>
    <path d="M29.9996 13.3334C26.3228 13.3334 23.333 10.3434 23.333 6.66656C23.333 2.99008 26.3229 0 29.9996 0C33.6763 0 36.6661 2.99008 36.6661 6.66656C36.6661 10.3434 33.6763 13.3334 29.9996 13.3334ZM29.9996 2.5C27.7013 2.5 25.833 4.37016 25.833 6.66656C25.833 8.96328 27.7013 10.8334 29.9996 10.8334C32.2979 10.8334 34.1661 8.96328 34.1661 6.66656C34.1661 4.37016 32.2979 2.5 29.9996 2.5ZM35.4161 33.3334C35.4161 36.3248 32.9912 38.75 29.9996 38.75C27.0079 38.75 24.583 36.3248 24.583 33.3334C24.583 30.3418 27.0079 27.9166 29.9996 27.9166C32.9912 27.9166 35.4161 30.3418 35.4161 33.3334Z" fill="currentColor"/>
    <path d="M30 39.9986C26.3232 39.9986 23.3334 37.0085 23.3334 33.332C23.3334 29.6552 26.3233 26.6652 30 26.6652C33.6767 26.6652 36.6666 29.6552 36.6666 33.332C36.6666 37.0085 33.6767 39.9986 30 39.9986ZM30 29.1652C27.7017 29.1652 25.8334 31.0353 25.8334 33.332C25.8334 35.6285 27.7017 37.4986 30 37.4986C32.2983 37.4986 34.1666 35.6284 34.1666 33.332C34.1666 31.0353 32.2983 29.1652 30 29.1652ZM12.0834 19.9986C12.0834 22.9902 9.6582 25.4152 6.66656 25.4152C3.67523 25.4152 1.25 22.9902 1.25 19.9986C1.25 17.007 3.67523 14.582 6.66656 14.582C9.6582 14.582 12.0834 17.007 12.0834 19.9986Z" fill="currentColor"/>
    <path d="M6.66656 26.6652C2.99008 26.6652 0 23.6753 0 19.9986C0 16.3219 2.99008 13.332 6.66656 13.332C10.3434 13.332 13.3334 16.3219 13.3334 19.9986C13.3334 23.6753 10.3434 26.6652 6.66656 26.6652ZM6.66656 15.832C4.36828 15.832 2.5 17.7019 2.5 19.9986C2.5 22.2953 4.36828 24.1652 6.66656 24.1652C8.96516 24.1652 10.8334 22.2953 10.8334 19.9986C10.8334 17.7019 8.96516 15.832 6.66656 15.832Z" fill="currentColor"/>
    <path d="M10.6019 19.199C10.0218 19.199 9.45841 18.8971 9.15177 18.3573C8.69669 17.559 8.97685 16.5406 9.77521 16.0838L25.2401 7.26722C26.0383 6.80886 27.0567 7.08902 27.5135 7.89042C27.9686 8.6887 27.6885 9.70714 26.89 10.1639L11.425 18.9805C11.1744 19.1238 10.8906 19.1992 10.6019 19.199ZM26.0652 32.949C25.785 32.949 25.5018 32.8788 25.2418 32.7305L9.77685 23.9139C8.97841 23.4589 8.69864 22.4405 9.15364 21.6404C9.60677 20.8405 10.6268 20.5589 11.4269 21.0172L26.892 29.8338C27.6904 30.2888 27.9701 31.3072 27.5151 32.1073C27.2069 32.6471 26.6436 32.949 26.0653 32.949H26.0652Z" fill="currentColor"/>
</svg>